# Blender v2.79 (sub 0) OBJ File: 'GGJ19_mainScene.blend'
# www.blender.org
mtllib GGJ19_chineseLantern.mtl
o WireHang_CUNurbsCurve
v -26.524380 -57.382195 -0.512855
v -26.991539 -57.404278 -0.616097
v -27.395145 -57.415447 -0.358489
v -27.498772 -57.409164 0.109066
v -27.241713 -57.389111 0.512679
v -26.774553 -57.367031 0.615920
v -26.370947 -57.355858 0.358312
v -26.267321 -57.362141 -0.109242
v -26.178093 -34.697319 -0.991794
v -26.643206 -34.651394 -1.096423
v -27.045092 -34.605473 -0.839979
v -27.148333 -34.586449 -0.372685
v -26.892452 -34.605473 0.031726
v -26.427341 -34.651394 0.136354
v -26.025454 -34.697319 -0.120089
v -25.922215 -34.716343 -0.587383
v -23.091022 -18.592821 -1.230749
v -23.531689 -18.438061 -1.336797
v -23.913187 -18.301367 -1.081537
v -24.012045 -18.262815 -0.614498
v -23.770350 -18.344990 -0.209264
v -23.329681 -18.499752 -0.103216
v -22.948183 -18.636444 -0.358475
v -22.849325 -18.674995 -0.825515
v -17.533503 -8.145778 -1.231063
v -17.886568 -7.839868 -1.336653
v -18.195494 -7.577955 -1.081013
v -18.279314 -7.513464 -0.613895
v -18.088930 -7.684173 -0.208930
v -17.735865 -7.990082 -0.103340
v -17.426941 -8.251994 -0.358979
v -17.343119 -8.316486 -0.826098
v -9.756086 -2.382967 -0.994684
v -9.944356 -1.954180 -1.095086
v -10.117650 -1.591135 -0.835178
v -10.174455 -1.506499 -0.367210
v -10.081495 -1.749851 0.034690
v -9.893226 -2.178638 0.135092
v -9.719932 -2.541683 -0.124816
v -9.663127 -2.626318 -0.592784
v 0.000000 -0.344720 -0.520392
v 0.000000 0.125015 -0.612499
v 0.000000 0.521518 -0.345813
v 0.000000 0.612523 0.123446
v 0.000000 0.344721 0.520392
v 0.000000 -0.125014 0.612499
v 0.000000 -0.521517 0.345813
v 0.000000 -0.612522 -0.123446
v 26.524380 -57.382195 -0.512855
v 26.991539 -57.404278 -0.616097
v 27.395145 -57.415447 -0.358489
v 27.498772 -57.409164 0.109066
v 27.241713 -57.389111 0.512679
v 26.774553 -57.367031 0.615920
v 26.370947 -57.355858 0.358312
v 26.267321 -57.362141 -0.109242
v 26.178093 -34.697319 -0.991794
v 26.643206 -34.651394 -1.096423
v 27.045092 -34.605473 -0.839979
v 27.148333 -34.586449 -0.372685
v 26.892452 -34.605473 0.031726
v 26.427341 -34.651394 0.136354
v 26.025454 -34.697319 -0.120089
v 25.922215 -34.716343 -0.587383
v 23.091022 -18.592821 -1.230749
v 23.531689 -18.438061 -1.336797
v 23.913187 -18.301367 -1.081537
v 24.012045 -18.262815 -0.614498
v 23.770350 -18.344990 -0.209264
v 23.329681 -18.499752 -0.103216
v 22.948183 -18.636444 -0.358475
v 22.849325 -18.674995 -0.825515
v 17.533503 -8.145778 -1.231063
v 17.886568 -7.839868 -1.336653
v 18.195494 -7.577955 -1.081013
v 18.279314 -7.513464 -0.613895
v 18.088930 -7.684173 -0.208930
v 17.735865 -7.990082 -0.103340
v 17.426941 -8.251994 -0.358979
v 17.343119 -8.316486 -0.826098
v 9.756086 -2.382967 -0.994684
v 9.944356 -1.954180 -1.095086
v 10.117650 -1.591135 -0.835178
v 10.174455 -1.506499 -0.367210
v 10.081495 -1.749851 0.034690
v 9.893226 -2.178638 0.135092
v 9.719932 -2.541683 -0.124816
v 9.663127 -2.626318 -0.592784
vn 0.5647 -0.0260 -0.8248
vn 0.5563 -0.0721 -0.8278
vn 0.9789 -0.1037 -0.1758
vn 0.9843 -0.0187 -0.1755
vn -0.1875 -0.0179 -0.9821
vn -0.1929 0.0022 -0.9812
vn -0.8239 0.0007 -0.5667
vn -0.8213 0.0744 -0.5656
vn -0.9853 0.0187 0.1700
vn -0.9804 0.1039 0.1671
vn -0.5839 0.0261 0.8114
vn -0.5853 0.0748 0.8073
vn 0.1604 0.0184 0.9869
vn 0.1521 0.0021 0.9883
vn 0.8151 -0.0002 0.5792
vn 0.8081 -0.0725 0.5845
vn 0.5184 -0.1896 -0.8338
vn 0.9278 -0.3287 -0.1765
vn -0.1943 0.0612 -0.9790
vn -0.7812 0.2720 -0.5619
vn -0.9301 0.3302 0.1610
vn -0.5658 0.2064 0.7982
vn 0.1280 -0.0374 0.9911
vn 0.7601 -0.2636 0.5939
vn 0.4132 -0.3421 -0.8439
vn 0.7464 -0.6398 -0.1830
vn -0.1582 0.1527 -0.9755
vn -0.6250 0.5481 -0.5558
vn -0.7490 0.6431 0.1591
vn -0.4693 0.3916 0.7914
vn 0.0798 -0.0852 0.9931
vn 0.5996 -0.5265 0.6027
vn 0.2450 -0.4693 -0.8484
vn 0.4080 -0.8918 -0.1955
vn -0.0613 0.2239 -0.9727
vn -0.3249 0.7729 -0.5450
vn -0.4090 0.8962 0.1715
vn -0.2732 0.5373 0.7979
vn 0.0194 -0.1323 0.9910
vn 0.3102 -0.7451 0.5904
vn 0.0000 -0.5228 -0.8525
vn 0.0000 -0.9811 -0.1932
vn 0.0000 0.2482 -0.9687
vn 0.0000 0.8511 -0.5250
vn 0.0000 0.9806 0.1959
vn 0.0000 0.5818 0.8133
vn 0.0000 -0.1480 0.9890
vn 0.0000 -0.8100 0.5865
vn -0.5647 -0.0260 -0.8248
vn -0.9843 -0.0187 -0.1755
vn -0.9789 -0.1037 -0.1758
vn -0.5563 -0.0721 -0.8278
vn 0.1875 -0.0179 -0.9821
vn 0.1929 0.0022 -0.9812
vn 0.8239 0.0007 -0.5667
vn 0.8213 0.0744 -0.5656
vn 0.9853 0.0187 0.1700
vn 0.9804 0.1039 0.1671
vn 0.5839 0.0261 0.8114
vn 0.5853 0.0748 0.8073
vn -0.1604 0.0184 0.9869
vn -0.1521 0.0021 0.9883
vn -0.8151 -0.0002 0.5792
vn -0.8081 -0.0725 0.5845
vn -0.9278 -0.3287 -0.1765
vn -0.5184 -0.1896 -0.8338
vn 0.1943 0.0612 -0.9790
vn 0.7812 0.2720 -0.5619
vn 0.9301 0.3302 0.1610
vn 0.5658 0.2064 0.7982
vn -0.1280 -0.0374 0.9911
vn -0.7601 -0.2636 0.5939
vn -0.7464 -0.6398 -0.1830
vn -0.4132 -0.3421 -0.8439
vn 0.1582 0.1527 -0.9755
vn 0.6250 0.5481 -0.5558
vn 0.7490 0.6431 0.1591
vn 0.4693 0.3916 0.7914
vn -0.0798 -0.0852 0.9931
vn -0.5996 -0.5265 0.6027
vn -0.4080 -0.8918 -0.1955
vn -0.2450 -0.4693 -0.8484
vn 0.0613 0.2239 -0.9727
vn 0.3249 0.7729 -0.5450
vn 0.4090 0.8962 0.1715
vn 0.2732 0.5373 0.7979
vn -0.0194 -0.1323 0.9910
vn -0.3102 -0.7451 0.5904
usemtl None
s 1
f 1//1 9//2 16//3 8//4
f 2//5 10//6 9//2 1//1
f 3//7 11//8 10//6 2//5
f 4//9 12//10 11//8 3//7
f 5//11 13//12 12//10 4//9
f 6//13 14//14 13//12 5//11
f 7//15 15//16 14//14 6//13
f 8//4 16//3 15//16 7//15
f 9//2 17//17 24//18 16//3
f 10//6 18//19 17//17 9//2
f 11//8 19//20 18//19 10//6
f 12//10 20//21 19//20 11//8
f 13//12 21//22 20//21 12//10
f 14//14 22//23 21//22 13//12
f 15//16 23//24 22//23 14//14
f 16//3 24//18 23//24 15//16
f 17//17 25//25 32//26 24//18
f 18//19 26//27 25//25 17//17
f 19//20 27//28 26//27 18//19
f 20//21 28//29 27//28 19//20
f 21//22 29//30 28//29 20//21
f 22//23 30//31 29//30 21//22
f 23//24 31//32 30//31 22//23
f 24//18 32//26 31//32 23//24
f 25//25 33//33 40//34 32//26
f 26//27 34//35 33//33 25//25
f 27//28 35//36 34//35 26//27
f 28//29 36//37 35//36 27//28
f 29//30 37//38 36//37 28//29
f 30//31 38//39 37//38 29//30
f 31//32 39//40 38//39 30//31
f 32//26 40//34 39//40 31//32
f 33//33 41//41 48//42 40//34
f 34//35 42//43 41//41 33//33
f 35//36 43//44 42//43 34//35
f 36//37 44//45 43//44 35//36
f 37//38 45//46 44//45 36//37
f 38//39 46//47 45//46 37//38
f 39//40 47//48 46//47 38//39
f 40//34 48//42 47//48 39//40
f 49//49 56//50 64//51 57//52
f 50//53 49//49 57//52 58//54
f 51//55 50//53 58//54 59//56
f 52//57 51//55 59//56 60//58
f 53//59 52//57 60//58 61//60
f 54//61 53//59 61//60 62//62
f 55//63 54//61 62//62 63//64
f 56//50 55//63 63//64 64//51
f 57//52 64//51 72//65 65//66
f 58//54 57//52 65//66 66//67
f 59//56 58//54 66//67 67//68
f 60//58 59//56 67//68 68//69
f 61//60 60//58 68//69 69//70
f 62//62 61//60 69//70 70//71
f 63//64 62//62 70//71 71//72
f 64//51 63//64 71//72 72//65
f 65//66 72//65 80//73 73//74
f 66//67 65//66 73//74 74//75
f 67//68 66//67 74//75 75//76
f 68//69 67//68 75//76 76//77
f 69//70 68//69 76//77 77//78
f 70//71 69//70 77//78 78//79
f 71//72 70//71 78//79 79//80
f 72//65 71//72 79//80 80//73
f 73//74 80//73 88//81 81//82
f 74//75 73//74 81//82 82//83
f 75//76 74//75 82//83 83//84
f 76//77 75//76 83//84 84//85
f 77//78 76//77 84//85 85//86
f 78//79 77//78 85//86 86//87
f 79//80 78//79 86//87 87//88
f 80//73 79//80 87//88 88//81
f 81//82 88//81 48//42 41//41
f 82//83 81//82 41//41 42//43
f 83//84 82//83 42//43 43//44
f 84//85 83//84 43//44 44//45
f 85//86 84//85 44//45 45//46
f 86//87 85//86 45//46 46//47
f 87//88 86//87 46//47 47//48
f 88//81 87//88 47//48 48//42
o lantern_Cylinder
v -0.000001 -150.035492 -20.204733
v -0.000001 -53.594776 -20.204733
v 14.286916 -150.035492 -14.286898
v 14.286916 -53.594776 -14.286898
v 20.204754 -150.035492 0.000024
v 20.204754 -53.594776 0.000024
v 14.286916 -150.035492 14.286938
v 14.286916 -53.594776 14.286938
v -0.000002 -150.035492 20.204777
v -0.000002 -53.594776 20.204777
v -14.286921 -150.035492 14.286934
v -14.286921 -53.594776 14.286934
v -20.204758 -150.035492 0.000022
v -20.204758 -53.594776 0.000022
v -14.286921 -150.035492 -14.286894
v -14.286921 -53.594776 -14.286894
v -0.000001 -142.511932 -25.418987
v -0.000001 -61.118298 -25.418987
v 17.973949 -61.118305 -17.973928
v 17.973949 -142.511963 -17.973928
v 25.419006 -61.118305 0.000024
v 25.419006 -142.511963 0.000024
v 17.973949 -61.118305 17.973972
v 17.973949 -142.511963 17.973972
v -0.000003 -61.118305 25.419027
v -0.000003 -142.511963 25.419027
v -17.973953 -61.118305 17.973969
v -17.973953 -142.511963 17.973969
v -25.419010 -61.118305 0.000023
v -25.419010 -142.511963 0.000023
v -17.973953 -61.118305 -17.973928
v -17.973953 -142.511963 -17.973928
v -0.000000 -129.981720 -57.804287
v -0.000000 -73.648506 -57.804287
v 40.873810 -73.648537 -40.873791
v 40.873810 -129.981735 -40.873791
v 57.804306 -73.648537 0.000026
v 57.804306 -129.981735 0.000026
v 40.873810 -73.648537 40.873840
v 40.873810 -129.981735 40.873840
v -0.000005 -73.648537 57.804333
v -0.000005 -129.981735 57.804333
v -40.873825 -73.648537 40.873833
v -40.873825 -129.981735 40.873833
v -57.804310 -73.648537 0.000023
v -57.804310 -129.981735 0.000023
v -40.873825 -73.648537 -40.873791
v -40.873825 -129.981735 -40.873791
v 0.000000 -91.069977 -67.156723
v 0.000000 -112.560226 -67.156723
v 47.486984 -112.560265 -47.486958
v 47.486984 -91.070007 -47.486958
v 67.156746 -112.560265 0.000027
v 67.156746 -91.070007 0.000027
v 47.486984 -112.560257 47.487003
v 47.486984 -91.070007 47.487003
v -0.000005 -112.560257 67.156769
v -0.000005 -91.070007 67.156769
v -47.486992 -112.560257 47.487000
v -47.486992 -91.070007 47.487000
v -67.156746 -112.560257 0.000023
v -67.156746 -91.070007 0.000023
v -47.486992 -112.560265 -47.486958
v -47.486992 -91.070007 -47.486958
v -0.000000 -64.284874 -41.611629
v 29.423878 -64.284897 -29.423857
v 41.611656 -64.284897 0.000025
v 29.423878 -64.284897 29.423904
v -0.000004 -64.284897 41.611679
v -29.423887 -64.284897 29.423897
v -41.611652 -64.284897 0.000023
v -29.423887 -64.284897 -29.423857
v 29.423878 -139.345367 -29.423857
v 41.611656 -139.345367 0.000025
v 29.423878 -139.345367 29.423904
v -0.000004 -139.345367 41.611671
v -29.423887 -139.345367 29.423897
v -41.611652 -139.345367 0.000023
v -29.423887 -139.345367 -29.423857
v -0.000000 -139.345352 -41.611629
v -0.000001 -150.035492 -25.418985
v 17.973949 -150.035492 -17.973930
v 17.973949 -53.594776 -17.973930
v -0.000001 -53.594776 -25.418985
v 25.419006 -150.035492 0.000024
v 25.419006 -53.594776 0.000024
v 17.973949 -150.035492 17.973970
v 17.973949 -53.594776 17.973970
v -0.000003 -150.035492 25.419029
v -0.000003 -53.594776 25.419029
v -17.973953 -150.035492 17.973967
v -17.973953 -53.594776 17.973967
v -25.419010 -150.035492 0.000023
v -25.419010 -53.594776 0.000023
v -17.973953 -150.035492 -17.973928
v -17.973953 -53.594776 -17.973928
v -0.000002 -120.796844 0.000021
v -0.000001 -64.265778 -20.204733
v -14.286921 -64.265778 -14.286894
v -20.204758 -64.265778 0.000022
v -14.286921 -64.265778 14.286934
v -0.000002 -64.265778 20.204777
v 14.286916 -64.265778 14.286938
v 20.204754 -64.265778 0.000024
v 14.286916 -64.265778 -14.286898
v 14.286916 -120.796852 -14.286898
v -0.000001 -120.796852 -20.204733
v 20.204754 -120.796852 0.000024
v 14.286916 -120.796852 14.286938
v -0.000002 -120.796852 20.204777
v -14.286921 -120.796852 14.286934
v -20.204758 -120.796852 0.000022
v -14.286921 -120.796852 -14.286894
vn 0.3827 -0.0000 -0.9239
vn 0.9239 -0.0000 -0.3827
vn 0.9239 -0.0000 0.3827
vn 0.3827 -0.0000 0.9239
vn -0.3827 0.0000 0.9239
vn -0.9239 0.0000 0.3827
vn -0.9239 0.0000 -0.3827
vn -0.3827 0.0000 -0.9239
vn -0.0792 0.9783 -0.1913
vn -0.1913 0.9783 -0.0792
vn -0.1913 0.9783 0.0792
vn -0.0792 0.9783 0.1913
vn 0.0792 0.9783 0.1913
vn 0.1913 0.9783 0.0792
vn 0.1913 0.9783 -0.0792
vn 0.0792 0.9783 -0.1913
vn 0.2030 -0.8477 -0.4902
vn -0.3428 -0.4443 -0.8277
vn 0.4902 -0.8477 -0.2030
vn 0.8277 -0.4443 0.3428
vn 0.4902 -0.8477 0.2030
vn 0.3428 -0.4443 0.8277
vn 0.2030 -0.8477 0.4902
vn -0.3428 -0.4443 0.8277
vn -0.2030 -0.8477 0.4902
vn -0.8277 -0.4443 0.3428
vn -0.4902 -0.8477 0.2030
vn -0.8277 -0.4443 -0.3428
vn -0.4902 -0.8477 -0.2030
vn -0.2030 -0.8477 -0.4902
vn 0.3428 -0.4443 -0.8277
vn 0.8277 -0.4443 -0.3428
vn -0.8277 0.4443 -0.3428
vn -0.8277 0.4443 0.3428
vn -0.3428 0.4443 0.8277
vn 0.3428 0.4443 0.8277
vn 0.8277 0.4443 0.3428
vn 0.8277 0.4443 -0.3428
vn 0.3428 0.4443 -0.8277
vn -0.3428 0.4443 -0.8277
vn 0.2030 0.8477 -0.4902
vn 0.4902 0.8477 -0.2030
vn 0.4902 0.8477 0.2030
vn 0.2030 0.8477 0.4902
vn -0.2030 0.8477 0.4902
vn -0.4902 0.8477 0.2030
vn -0.4902 0.8477 -0.2030
vn -0.2030 0.8477 -0.4902
vn -0.0792 -0.9783 -0.1913
vn -0.1913 -0.9783 -0.0792
vn -0.1913 -0.9783 0.0792
vn -0.0792 -0.9783 0.1913
vn 0.0792 -0.9783 0.1913
vn 0.1913 -0.9783 0.0792
vn 0.1913 -0.9783 -0.0792
vn 0.0792 -0.9783 -0.1913
vn 0.0000 -1.0000 -0.0000
vn 0.0000 1.0000 0.0000
usemtl None
s off
f 106//89 172//89 171//89 107//89
f 107//90 171//90 174//90 109//90
f 109//91 174//91 176//91 111//91
f 111//92 176//92 178//92 113//92
f 113//93 178//93 180//93 115//93
f 115//94 180//94 182//94 117//94
f 187//91 104//91 102//91 188//91
f 117//95 182//95 184//95 119//95
f 119//96 184//96 172//96 106//96
f 186//92 90//92 104//92 187//92
f 183//96 120//96 105//96 169//96
f 160//97 119//97 106//97 153//97
f 181//95 118//95 120//95 183//95
f 159//98 117//98 119//98 160//98
f 179//94 116//94 118//94 181//94
f 158//99 115//99 117//99 159//99
f 177//93 114//93 116//93 179//93
f 157//100 113//100 115//100 158//100
f 175//92 112//92 114//92 177//92
f 156//101 111//101 113//101 157//101
f 173//91 110//91 112//91 175//91
f 155//102 109//102 111//102 156//102
f 170//90 108//90 110//90 173//90
f 154//103 107//103 109//103 155//103
f 169//89 105//89 108//89 170//89
f 153//104 106//104 107//104 154//104
f 168//105 121//105 124//105 161//105
f 136//106 151//106 138//106 121//106
f 161//107 124//107 126//107 162//107
f 126//108 141//108 143//108 128//108
f 162//109 126//109 128//109 163//109
f 128//110 143//110 145//110 130//110
f 163//111 128//111 130//111 164//111
f 130//112 145//112 147//112 132//112
f 164//113 130//113 132//113 165//113
f 132//114 147//114 149//114 134//114
f 165//115 132//115 134//115 166//115
f 134//116 149//116 151//116 136//116
f 166//117 134//117 136//117 167//117
f 167//118 136//118 121//118 168//118
f 121//119 138//119 139//119 124//119
f 124//120 139//120 141//120 126//120
f 150//121 133//121 135//121 152//121
f 148//122 131//122 133//122 150//122
f 146//123 129//123 131//123 148//123
f 144//124 127//124 129//124 146//124
f 142//125 125//125 127//125 144//125
f 140//126 123//126 125//126 142//126
f 137//127 122//127 123//127 140//127
f 152//96 137//96 138//96 151//96
f 150//95 152//95 151//95 149//95
f 148//94 150//94 149//94 147//94
f 146//93 148//93 147//93 145//93
f 144//92 146//92 145//92 143//92
f 142//91 144//91 143//91 141//91
f 140//90 142//90 141//90 139//90
f 137//89 140//89 139//89 138//89
f 152//128 135//128 122//128 137//128
f 122//129 153//129 154//129 123//129
f 123//130 154//130 155//130 125//130
f 125//131 155//131 156//131 127//131
f 127//132 156//132 157//132 129//132
f 129//133 157//133 158//133 131//133
f 131//134 158//134 159//134 133//134
f 133//135 159//135 160//135 135//135
f 135//136 160//136 153//136 122//136
f 120//137 167//137 168//137 105//137
f 118//138 166//138 167//138 120//138
f 116//139 165//139 166//139 118//139
f 114//140 164//140 165//140 116//140
f 112//141 163//141 164//141 114//141
f 110//142 162//142 163//142 112//142
f 108//143 161//143 162//143 110//143
f 105//144 168//144 161//144 108//144
f 91//145 89//145 169//145 170//145
f 90//146 92//146 171//146 172//146
f 93//145 91//145 170//145 173//145
f 92//146 94//146 174//146 171//146
f 95//145 93//145 173//145 175//145
f 94//146 96//146 176//146 174//146
f 97//145 95//145 175//145 177//145
f 96//146 98//146 178//146 176//146
f 99//145 97//145 177//145 179//145
f 98//146 100//146 180//146 178//146
f 101//145 99//145 179//145 181//145
f 100//146 102//146 182//146 180//146
f 103//145 101//145 181//145 183//145
f 102//146 104//146 184//146 182//146
f 89//145 103//145 183//145 169//145
f 104//146 90//146 172//146 184//146
f 188//90 102//90 100//90 189//90
f 189//89 100//89 98//89 190//89
f 190//96 98//96 96//96 191//96
f 191//95 96//95 94//95 192//95
f 192//94 94//94 92//94 193//94
f 193//93 92//93 90//93 186//93
f 91//93 194//93 195//93 89//93
f 93//94 196//94 194//94 91//94
f 95//95 197//95 196//95 93//95
f 97//96 198//96 197//96 95//96
f 99//89 199//89 198//89 97//89
f 101//90 200//90 199//90 99//90
f 89//92 195//92 201//92 103//92
f 103//91 201//91 200//91 101//91
f 185//145 195//145 194//145
f 185//145 194//145 196//145
f 185//145 196//145 197//145
f 185//145 197//145 198//145
f 185//145 198//145 199//145
f 185//145 199//145 200//145
f 185//145 201//145 195//145
f 185//145 200//145 201//145
o dangle_Plane.001
v -16.512159 -247.359070 0.000280
v 16.512159 -247.359070 0.000280
v -16.512159 -147.782516 0.000294
v 16.512159 -147.782516 0.000294
vt 0.348456 0.975345
vt 0.034356 0.975345
vt 0.034356 0.028255
vt 0.348456 0.028255
vn 0.0000 -0.0000 1.0000
usemtl None
s off
f 202/1/147 203/2/147 205/3/147 204/4/147
