# Blender v2.79 (sub 0) OBJ File: 'GGJ19_mainScene.blend'
# www.blender.org
mtllib GGJ19_house.mtl
o Cube.001
v -411.677795 0.000000 12.438809
v -411.677795 333.999084 12.438809
v -411.677795 0.000000 -12.438809
v -411.677795 333.999084 -12.438809
v 411.677795 0.000000 12.438809
v 411.677795 333.999084 12.438809
v 411.677795 0.000000 -12.438809
v 411.677795 333.999084 -12.438809
v 388.846283 0.000000 -12.438809
v -388.846344 0.000000 -12.438809
v -388.846283 333.999084 -12.438809
v 388.846344 333.999084 -12.438809
v -388.846283 0.000000 12.438809
v 388.846344 0.000000 12.438809
v 388.846283 333.999084 12.438809
v -388.846344 333.999084 12.438809
v -411.677795 0.000000 695.915894
v -411.677795 333.999084 695.915894
v -411.677795 0.000000 671.038330
v -411.677795 333.999084 671.038330
v 411.677795 0.000000 695.915894
v 411.677795 333.999084 695.915894
v 411.677795 0.000000 671.038330
v 411.677795 333.999084 671.038330
v 388.846283 0.000000 671.038330
v -388.846344 0.000000 671.038330
v -388.846283 333.999084 671.038330
v 388.846344 333.999084 671.038330
v -388.846283 0.000000 695.915894
v 388.846344 0.000000 695.915894
v 388.846283 333.999084 695.915894
v -388.846344 333.999084 695.915894
v -411.677795 333.999084 -419.392487
v -411.677795 0.000000 -419.392487
v -388.846344 0.000000 -419.392487
v 388.846344 333.999084 -419.392487
v 411.677795 333.999084 -419.392487
v 411.677795 0.000000 -419.392487
v 388.846283 0.000000 -419.392487
v -388.846283 333.999084 -419.392487
v -411.677795 96.683952 12.438809
v -411.677795 96.683952 -12.438809
v 411.677795 96.683952 -12.438809
v 411.677795 96.683952 12.438809
v -388.846313 96.683952 -12.438809
v 388.846313 96.683952 -12.438809
v -411.677795 96.683952 695.915894
v -411.677795 96.683952 671.038330
v 411.677795 96.683952 671.038330
v 411.677795 96.683952 695.915894
v 388.846313 96.683952 695.915894
v -388.846313 96.683952 695.915894
v -411.677795 96.683952 -419.392487
v 411.677795 96.683952 -419.392487
v -388.846313 96.683952 -419.392487
v 388.846313 96.683952 -419.392487
v -411.677795 96.683952 -936.151855
v -411.677795 0.000000 -936.151855
v -388.846344 0.000000 -936.151855
v 411.677795 96.683952 -936.151855
v 411.677795 0.000000 -936.151855
v 388.846283 0.000000 -936.151855
v -388.846313 96.683952 -936.151855
v 388.846313 96.683952 -936.151855
v 129.615372 0.000000 -12.438809
v -129.615494 0.000000 -12.438809
v -129.615372 333.999084 -12.438809
v 129.615494 333.999084 -12.438809
v -129.615372 0.000000 12.438809
v 129.615494 0.000000 12.438809
v 129.615372 333.999084 12.438809
v -129.615494 333.999084 12.438809
v -129.615448 96.683952 -12.438809
v 129.615433 96.683952 -12.438809
v 388.846283 295.472900 12.438809
v -388.846344 295.472900 12.438809
v -388.846283 295.472900 671.038330
v 388.846344 295.472900 671.038330
v 129.615402 295.472900 12.438809
v -129.615479 295.472900 12.438809
v -411.677795 295.472900 12.438809
v -411.677795 295.472900 695.915894
v -411.677795 295.472900 -12.438809
v 411.677795 295.472900 -12.438809
v 411.677795 295.472900 12.438809
v -388.846313 295.472900 -12.438809
v 388.846313 295.472900 -12.438809
v -411.677795 295.472900 671.038330
v 411.677795 295.472900 671.038330
v 411.677795 295.472900 695.915894
v 388.846313 295.472900 695.915894
v -388.846313 295.472900 695.915894
v -411.677795 295.472900 -419.392487
v 411.677795 295.472900 -419.392487
v -388.846313 295.472900 -419.392487
v 388.846313 295.472900 -419.392487
v -129.615417 295.472900 -12.438809
v 129.615463 295.472900 -12.438809
v 388.846313 96.683952 12.438809
v -388.846313 96.683952 12.438809
v -388.846313 96.683952 671.038330
v 388.846313 96.683952 671.038330
v 129.615433 96.683952 12.438809
v -129.615448 96.683952 12.438809
v -411.677795 350.993713 12.438809
v -411.677795 350.993713 -12.438809
v 388.846344 350.993713 -12.438809
v 411.677795 350.993713 -12.438809
v 411.677795 350.993713 12.438809
v -388.846344 350.993713 12.438809
v -388.846283 350.993713 -12.438809
v 129.615494 350.993713 -12.438809
v 388.846283 350.993713 12.438809
v -129.615494 350.993713 12.438809
v 388.846344 350.993713 -419.392487
v 411.677795 350.993713 -419.392487
v -411.677795 350.993713 -419.392487
v -388.846283 350.993713 -419.392487
v -129.615372 350.993713 -12.438809
v 129.615372 350.993713 12.438809
vn -1.0000 0.0000 0.0000
vn 1.0000 0.0000 0.0000
vn 0.0000 -1.0000 0.0000
vn 0.0000 0.0000 -1.0000
vn 0.0000 0.0000 1.0000
vn 0.0000 1.0000 -0.0000
usemtl None
s off
f 81//1 2//1 4//1 83//1
f 43//2 7//2 38//2 54//2
f 84//2 8//2 6//2 85//2
f 81//1 88//1 20//1 2//1
f 9//3 7//3 5//3 14//3
f 67//4 11//4 111//4 119//4
f 15//5 6//5 109//5 113//5
f 40//4 33//4 117//4 118//4
f 3//3 10//3 13//3 1//3
f 65//3 9//3 14//3 70//3
f 13//3 26//3 19//3 1//3
f 80//5 72//5 16//5 76//5
f 7//3 9//3 39//3 38//3
f 98//4 68//4 12//4 87//4
f 82//1 18//1 20//1 88//1
f 100//2 101//2 26//2 13//2
f 89//2 24//2 22//2 90//2
f 92//5 32//5 18//5 82//5
f 25//3 23//3 21//3 30//3
f 27//6 20//6 18//6 32//6
f 24//6 28//6 31//6 22//6
f 28//6 27//6 32//6 31//6
f 19//3 26//3 29//3 17//3
f 26//3 25//3 30//3 29//3
f 90//5 22//5 31//5 91//5
f 91//5 31//5 32//5 92//5
f 2//6 20//6 27//6 16//6
f 77//4 27//4 28//4 78//4
f 5//3 23//3 25//3 14//3
f 75//1 78//1 28//1 15//1
f 15//6 28//6 24//6 6//6
f 44//2 49//2 23//2 5//2
f 96//4 36//4 37//4 94//4
f 93//4 33//4 40//4 95//4
f 45//2 10//2 35//2 55//2
f 10//3 3//3 34//3 35//3
f 87//1 12//1 36//1 96//1
f 11//2 40//2 118//2 111//2
f 4//1 2//1 105//1 106//1
f 83//1 4//1 33//1 93//1
f 3//1 42//1 53//1 34//1
f 9//1 46//1 56//1 39//1
f 86//2 45//2 55//2 95//2
f 54//2 38//2 61//2 60//2
f 56//6 54//6 60//6 64//6
f 85//2 89//2 49//2 44//2
f 30//5 51//5 52//5 29//5
f 21//5 50//5 51//5 30//5
f 29//5 52//5 47//5 17//5
f 23//2 49//2 50//2 21//2
f 17//1 47//1 48//1 19//1
f 65//4 74//4 46//4 9//4
f 1//1 19//1 48//1 41//1
f 7//2 43//2 44//2 5//2
f 84//2 43//2 54//2 94//2
f 1//1 41//1 42//1 3//1
f 58//4 57//4 63//4 59//4
f 62//4 64//4 60//4 61//4
f 35//3 34//3 58//3 59//3
f 55//2 35//2 59//2 63//2
f 38//3 39//3 62//3 61//3
f 53//6 55//6 63//6 57//6
f 34//1 53//1 57//1 58//1
f 39//1 56//1 64//1 62//1
f 10//4 45//4 73//4 66//4
f 86//4 11//4 67//4 97//4
f 97//4 67//4 68//4 98//4
f 75//5 15//5 71//5 79//5
f 79//5 71//5 72//5 80//5
f 10//3 66//3 69//3 13//3
f 6//2 8//2 108//2 109//2
f 12//4 68//4 112//4 107//4
f 99//5 75//5 79//5 103//5
f 99//1 102//1 78//1 75//1
f 101//4 77//4 78//4 102//4
f 16//2 27//2 77//2 76//2
f 104//5 80//5 76//5 100//5
f 45//4 86//4 97//4 73//4
f 8//2 84//2 94//2 37//2
f 6//2 24//2 89//2 85//2
f 11//2 86//2 95//2 40//2
f 42//1 83//1 93//1 53//1
f 46//1 87//1 96//1 56//1
f 53//4 93//4 95//4 55//4
f 56//4 96//4 94//4 54//4
f 51//5 91//5 92//5 52//5
f 50//5 90//5 91//5 51//5
f 52//5 92//5 82//5 47//5
f 49//2 89//2 90//2 50//2
f 47//1 82//1 88//1 48//1
f 74//4 98//4 87//4 46//4
f 41//1 48//1 88//1 81//1
f 43//2 84//2 85//2 44//2
f 41//1 81//1 83//1 42//1
f 69//5 104//5 100//5 13//5
f 26//4 101//4 102//4 25//4
f 14//1 25//1 102//1 99//1
f 14//5 99//5 103//5 70//5
f 76//2 77//2 101//2 100//2
f 65//1 70//1 103//1 79//1 98//1 74//1
f 66//2 73//2 97//2 80//2 104//2 69//2
f 79//3 80//3 97//3 98//3
f 111//6 106//6 105//6 110//6
f 108//6 107//6 113//6 109//6
f 119//6 111//6 110//6 114//6
f 107//6 108//6 116//6 115//6
f 106//6 111//6 118//6 117//6
f 107//6 112//6 120//6 113//6
f 112//6 119//6 114//6 120//6
f 2//5 16//5 110//5 105//5
f 36//1 12//1 107//1 115//1
f 68//4 67//4 119//4 112//4
f 16//5 72//5 114//5 110//5
f 33//1 4//1 106//1 117//1
f 71//5 15//5 113//5 120//5
f 37//4 36//4 115//4 116//4
f 72//5 71//5 120//5 114//5
f 8//2 37//2 116//2 108//2
